<?xml version="1.0" encoding="UTF-8"?> <svg xmlns="http://www.w3.org/2000/svg" width="48" height="48" viewBox="0 0 48 48" fill="none"><path d="M47.7586 23.9935C47.7586 20.8377 43.8065 17.8469 37.7472 15.9922C39.1455 9.81633 38.5241 4.90285 35.7856 3.32974C35.1543 2.96074 34.4165 2.78595 33.6105 2.78595V4.9514C34.0572 4.9514 34.4165 5.03879 34.7175 5.20386C36.0381 5.96127 36.6111 8.84528 36.1642 12.5547C36.0576 13.4675 35.8828 14.4288 35.6692 15.4095C33.7658 14.9434 31.6878 14.5842 29.503 14.3511C28.1921 12.5547 26.8326 10.9233 25.4634 9.49589C28.629 6.55362 31.6005 4.94167 33.6203 4.94167V2.77625C30.9497 2.77625 27.4541 4.6795 23.9195 7.98104C20.3848 4.69891 16.8891 2.81509 14.2188 2.81509V4.98051C16.2288 4.98051 19.2099 6.58276 22.3755 9.50559C21.016 10.933 19.6565 12.5547 18.365 14.3511C16.1704 14.5842 14.0924 14.9434 12.1893 15.4192C11.9658 14.4482 11.8008 13.5063 11.6842 12.6032C11.228 8.89383 11.791 6.00982 13.1021 5.24271C13.3933 5.06791 13.772 4.99024 14.2188 4.99024V2.8248C13.403 2.8248 12.665 2.99959 12.0242 3.36859C9.29549 4.94167 8.68382 9.84545 10.0917 16.0019C4.05187 17.8663 0.119141 20.8474 0.119141 23.9935C0.119141 27.1496 4.07128 30.1404 10.1306 31.9949C8.73224 38.1709 9.35369 43.0842 12.0922 44.6574C12.7234 45.0263 13.4612 45.2011 14.277 45.2011C16.9473 45.2011 20.4432 43.2979 23.9777 39.9964C27.5123 43.2786 31.0081 45.1624 33.6785 45.1624C34.494 45.1624 35.2321 44.9877 35.8731 44.6185C38.6016 43.0454 39.2135 38.1416 37.8054 31.9854C43.8259 30.1306 47.7586 27.1398 47.7586 23.9935ZM35.1157 17.5167C34.7563 18.7694 34.3097 20.0607 33.8046 21.3523C33.4066 20.5756 32.9891 19.7987 32.5327 19.0218C32.086 18.245 31.61 17.4876 31.1343 16.7496C32.5131 16.9535 33.8435 17.206 35.1157 17.5167ZM30.6681 27.8583C29.9107 29.1694 29.1341 30.4122 28.328 31.5678C26.8811 31.694 25.415 31.762 23.9389 31.762C22.4726 31.762 21.0062 31.694 19.5692 31.5774C18.7632 30.4218 17.9766 29.1887 17.2192 27.8874C16.4811 26.6154 15.8113 25.3239 15.1994 24.0228C15.8015 22.7215 16.4811 21.4202 17.2096 20.1483C17.967 18.8374 18.7437 17.5944 19.5497 16.4388C20.9967 16.3126 22.4628 16.2446 23.9389 16.2446C25.4052 16.2446 26.8715 16.3126 28.3085 16.4291C29.1145 17.5847 29.9012 18.8179 30.6586 20.1192C31.3966 21.3911 32.0665 22.6827 32.6784 23.9839C32.0665 25.285 31.3966 26.5863 30.6681 27.8583ZM33.8046 26.5961C34.3144 27.8615 34.7616 29.1513 35.1448 30.4607C33.8726 30.7714 32.5327 31.0337 31.1441 31.2376C31.6198 30.49 32.0956 29.7228 32.5424 28.9362C32.9891 28.1595 33.4066 27.3728 33.8046 26.5961ZM23.9582 36.9571C23.0551 36.0247 22.1521 34.9858 21.2588 33.8497C22.1327 33.8886 23.026 33.9177 23.9291 33.9177C24.8419 33.9177 25.745 33.8983 26.6287 33.8497C25.7952 34.9329 24.9037 35.9702 23.9582 36.9571ZM16.7337 31.2376C15.3549 31.0337 14.0245 30.7812 12.7525 30.4704C13.1116 29.2178 13.5585 27.9263 14.0633 26.6347C14.4616 27.4116 14.8791 28.1886 15.3353 28.9652C15.7917 29.7422 16.2579 30.4995 16.7337 31.2376ZM23.9098 11.0301C24.8128 11.9623 25.7159 13.0014 26.6092 14.1375C25.7352 14.0986 24.8419 14.0695 23.9389 14.0695C23.026 14.0695 22.123 14.0889 21.2395 14.1375C22.0729 13.0543 22.9643 12.017 23.9098 11.0301ZM16.7239 16.7496C16.2482 17.4973 15.7724 18.2644 15.3258 19.0509C14.8791 19.8278 14.4616 20.6047 14.0633 21.3814C13.5536 20.1159 13.1064 18.8261 12.7234 17.5167C13.9954 17.2157 15.3353 16.9535 16.7239 16.7496ZM7.93601 28.9071C4.49856 27.4407 2.27486 25.5182 2.27486 23.9935C2.27486 22.469 4.49856 20.5367 7.93601 19.0802C8.77111 18.7208 9.68395 18.4004 10.6259 18.0993C11.1794 20.0026 11.9076 21.9835 12.8107 24.013C11.9174 26.0328 11.1987 28.004 10.655 29.8976C9.69372 29.5965 8.78088 29.2664 7.93601 28.9071ZM13.1603 42.7833C11.8397 42.0259 11.2666 39.1419 11.7135 35.4324C11.8203 34.5198 11.9949 33.5583 12.2086 32.5775C14.112 33.0437 16.19 33.4031 18.3748 33.636C19.6856 35.4324 21.0451 37.0637 22.4144 38.4912C19.2488 41.4336 16.2773 43.0454 14.2575 43.0454C13.8206 43.0358 13.4517 42.9483 13.1603 42.7833ZM36.1936 35.384C36.6498 39.0933 36.0867 41.9773 34.7757 42.7444C34.4845 42.9192 34.1058 42.997 33.6589 42.997C31.6489 42.997 28.6679 41.3947 25.5022 38.4719C26.8617 37.0444 28.2212 35.4228 29.5127 33.6263C31.7073 33.3933 33.7853 33.0339 35.6885 32.5582C35.9119 33.539 36.0867 34.4809 36.1936 35.384ZM39.932 28.9071C39.0969 29.2664 38.184 29.5869 37.2421 29.8879C36.6886 27.9847 35.9604 26.0037 35.0573 23.9742C35.9508 21.9544 36.6693 19.9832 37.213 18.0896C38.1745 18.3907 39.0871 18.7208 39.9417 19.0802C43.3792 20.5463 45.6029 22.469 45.6029 23.9935C45.5931 25.5182 43.3694 27.4505 39.932 28.9071Z" fill="#61DAFB"></path><path d="M23.9308 28.4317C26.3818 28.4317 28.3686 26.4449 28.3686 23.9939C28.3686 21.5431 26.3818 19.5563 23.9308 19.5563C21.48 19.5563 19.4932 21.5431 19.4932 23.9939C19.4932 26.4449 21.48 28.4317 23.9308 28.4317Z" fill="#61DAFB"></path></svg> 